<?xml version="1.0" encoding="utf-8"?>
<!-- Generator: Adobe Illustrator 24.2.0, SVG Export Plug-In . SVG Version: 6.00 Build 0)  -->
<!-- Author: PengDa -->
<svg version="1.1" id="pengdaIcon" xmlns="http://www.w3.org/2000/svg" xmlns:xlink="http://www.w3.org/1999/xlink" x="0px" y="0px"
	 viewBox="0 0 1024 1024" style="enable-background:new 0 0 1024 1024;" xml:space="preserve">
	<path class="pengdaIcon" d="M512,256c-141.4,0-256,114.6-256,256s114.6,256,256,256s256-114.6,256-256S653.4,256,512,256z M512,648
		c-75.1,0-136-60.9-136-136s60.9-136,136-136s136,60.9,136,136S587.1,648,512,648z"/>
	<path class="pengdaIcon" d="M256.2,955.6c37.1,21.5,77.2,38.4,119.5,50V513H256.2V955.6z"/>
	<path class="pengdaIcon" d="M648,18.3V512h120V68.5C730.7,46.9,690.5,29.9,648,18.3z"/>
</svg>
